<?xml version="1.0" standalone="no"?>
<!DOCTYPE svg PUBLIC "-//W3C//DTD SVG 20010904//EN"
 "http://www.w3.org/TR/2001/REC-SVG-20010904/DTD/svg10.dtd">
<svg version="1.0" xmlns="http://www.w3.org/2000/svg"
 width="1781.000000pt" height="320.000000pt" viewBox="0 0 1781.000000 320.000000"
 preserveAspectRatio="xMidYMid meet">

<g transform="translate(0.000000,320.000000) scale(0.100000,-0.100000)"
fill="#000000" stroke="none">
<path d="M780 2735 c-228 -63 -404 -251 -487 -522 -25 -82 -27 -101 -27 -268
0 -207 14 -276 84 -421 207 -428 692 -524 1012 -201 l78 78 0 -135 0 -136 80
0 80 0 0 810 0 810 -80 0 -80 0 0 -137 0 -138 -55 62 c-67 75 -180 152 -266
183 -84 29 -258 37 -339 15z m284 -185 c276 -94 432 -475 336 -818 -49 -175
-153 -313 -288 -380 -74 -36 -79 -37 -186 -37 -106 0 -114 2 -181 34 -295 144
-409 592 -239 940 44 90 145 196 223 236 111 55 223 64 335 25z"/>
<path d="M8800 2734 c-124 -33 -253 -118 -336 -222 -55 -69 -136 -233 -159
-322 -23 -87 -31 -319 -15 -416 51 -317 258 -567 522 -629 364 -86 719 197
788 629 16 98 8 329 -15 416 -24 91 -93 233 -150 308 -85 113 -217 202 -350
237 -73 19 -212 18 -285 -1z m287 -185 c150 -51 282 -212 334 -406 28 -104 30
-288 5 -388 -47 -186 -156 -334 -294 -403 -74 -36 -79 -37 -186 -37 -105 0
-115 2 -180 33 -81 38 -185 138 -229 220 -150 279 -114 645 84 857 128 136
298 182 466 124z"/>
<path d="M12952 2739 c-66 -13 -180 -69 -243 -119 -183 -147 -283 -361 -296
-630 -21 -479 273 -860 667 -860 174 0 359 91 470 231 l40 51 0 -141 0 -141
80 0 80 0 0 810 0 810 -80 0 -80 0 0 -134 0 -135 -82 83 c-130 129 -267 187
-436 185 -42 -1 -97 -5 -120 -10z m259 -185 c76 -23 167 -91 227 -169 265
-352 142 -930 -226 -1056 -76 -26 -189 -25 -270 2 -214 72 -362 320 -362 606
0 133 20 225 76 341 114 236 329 343 555 276z"/>
<path d="M2020 1930 l0 -800 80 0 80 0 0 648 0 647 429 -647 430 -648 75 0 76
0 0 800 0 800 -80 0 -80 0 -2 -636 -3 -636 -425 636 -425 635 -77 1 -78 0 0
-800z"/>
<path d="M3580 1930 l0 -800 85 0 85 0 0 643 0 642 425 -640 425 -640 80 -3
80 -3 0 801 0 800 -85 0 -85 0 -2 -632 -3 -633 -424 633 -424 632 -78 0 -79 0
0 -800z"/>
<path d="M5090 1930 l0 -800 495 0 495 0 0 75 0 75 -415 0 -415 0 2 288 3 287
353 3 352 2 0 75 0 75 -355 0 -355 0 0 280 0 280 413 2 412 3 0 75 0 75 -492
3 -493 2 0 -800z"/>
<path d="M7160 1930 l0 -800 79 0 c73 0 79 2 85 22 3 13 6 173 6 356 l0 332
350 0 350 0 0 75 0 75 -355 0 -355 0 0 295 0 295 415 0 415 0 0 75 0 75 -495
0 -495 0 0 -800z"/>
<path d="M9860 1930 l0 -800 85 0 85 0 2 642 3 642 425 -642 425 -641 78 -1
77 0 0 800 0 800 -80 0 -80 0 -2 -637 -3 -637 -425 634 -426 635 -82 3 -82 3
0 -801z"/>
<path d="M11310 2655 l0 -75 230 0 230 0 0 -725 0 -725 85 0 85 0 0 725 0 725
230 0 230 0 0 75 0 75 -545 0 -545 0 0 -75z"/>
<path d="M14190 1930 l0 -800 85 0 85 0 0 800 0 800 -85 0 -85 0 0 -800z"/>
<path d="M14770 1930 l0 -800 85 0 85 0 0 643 0 642 426 -642 426 -643 79 0
79 0 0 800 0 800 -85 0 -85 0 0 -637 0 -637 -425 635 -426 634 -79 3 -80 3 0
-801z"/>
<path d="M16320 1930 l0 -800 495 0 495 0 0 75 0 75 -412 2 -413 3 -3 288 -2
287 355 0 355 0 0 75 0 75 -352 2 -353 3 0 280 0 280 413 3 412 2 0 75 0 75
-495 0 -495 0 0 -800z"/>
<path d="M17028 916 c-92 -34 -128 -81 -128 -168 0 -46 5 -62 26 -88 35 -41
60 -53 179 -84 113 -30 142 -46 147 -78 11 -70 -46 -113 -139 -106 -67 6 -103
31 -123 86 -14 41 -15 42 -62 42 -26 0 -50 -4 -53 -10 -10 -16 15 -93 42 -128
37 -49 96 -75 183 -80 166 -10 261 57 261 183 0 104 -45 144 -214 186 -107 26
-137 47 -137 94 0 47 36 70 106 70 63 0 104 -26 118 -74 9 -30 11 -31 62 -31
50 0 54 2 54 23 0 45 -43 111 -91 140 -57 35 -170 46 -231 23z"/>
<path d="M14820 609 l0 -300 53 3 52 3 3 113 3 112 97 0 c53 0 115 5 137 11
81 23 134 113 121 208 -8 58 -37 102 -84 129 -37 20 -53 22 -211 22 l-171 0 0
-301z m320 201 c29 -16 44 -73 30 -116 -16 -48 -56 -64 -160 -64 l-80 0 0 95
0 95 96 0 c52 0 104 -4 114 -10z"/>
<path d="M15412 618 c-62 -161 -112 -297 -112 -301 0 -4 26 -7 57 -5 l57 3 25
78 25 77 117 0 116 0 30 -77 29 -78 57 -3 c31 -2 57 1 57 5 0 4 -51 139 -112
300 l-113 293 -60 0 -61 0 -112 -292z m175 -56 c-44 -2 -81 -1 -83 0 -2 2 15
57 38 122 l41 118 42 -119 41 -118 -79 -3z"/>
<path d="M15980 610 l0 -300 55 0 55 0 0 126 0 126 105 -4 c133 -5 143 -12
157 -124 17 -135 10 -124 77 -124 l59 0 -14 38 c-7 20 -13 60 -14 87 0 71 -17
121 -47 144 l-25 21 30 28 c58 55 65 163 14 224 -44 52 -72 58 -272 58 l-180
0 0 -300z m346 195 c28 -19 37 -68 20 -109 -18 -44 -55 -56 -167 -56 l-89 0 0
90 0 90 108 0 c78 0 113 -4 128 -15z"/>
<path d="M16620 610 l0 -300 55 0 55 0 0 300 0 300 -55 0 -55 0 0 -300z"/>
</g>
</svg>
